<svg width="149" height="145" xmlns="http://www.w3.org/2000/svg">

 <g>
  <title>background</title>
  <rect fill="none" id="canvas_background" height="402" width="582" y="-1" x="-1"/>
 </g>
 <g>
  <title>Layer 1</title>
  <path id="svg_1" fill="#ffffff" d="m72.966,5.49226c0.8623,-1.07835 2.4355,-1.25351 3.5138,-0.39123l70.9962,56.77067c1.079,0.8623 1.254,2.4355 0.391,3.5139c-0.862,1.0783 -2.435,1.2535 -3.513,0.3912l-70.9967,-56.77072c-1.0784,-0.86227 -1.2536,-2.43547 -0.3913,-3.51382z" clip-rule="evenodd" fill-rule="evenodd"/>
  <path id="svg_2" fill="#ffffff" d="m76.8713,5.49226c0.8623,1.07835 0.6871,2.65155 -0.3912,3.51382l-70.99635,56.77072c-1.07835,0.8623 -2.65154,0.6871 -3.51382,-0.3912c-0.86228,-1.0784 -0.68712,-2.6516 0.39123,-3.5139l70.99634,-56.77067c1.0783,-0.86228 2.6515,-0.68712 3.5138,0.39123z" clip-rule="evenodd" fill-rule="evenodd"/>
  <path id="svg_3" fill="#ffffff" d="m25.2212,47.1317c1.3807,0 2.5,1.1192 2.5,2.5l0,92.2523c0,1.381 -1.1193,2.5 -2.5,2.5c-1.3807,0 -2.5,-1.119 -2.5,-2.5l0,-92.2523c0,-1.3808 1.1193,-2.5 2.5,-2.5z" clip-rule="evenodd" fill-rule="evenodd"/>
  <path id="svg_4" fill="#ffffff" d="m124.616,47.1317c1.381,0 2.5,1.1192 2.5,2.5l0,92.2523c0,1.381 -1.119,2.5 -2.5,2.5c-1.381,0 -2.5,-1.119 -2.5,-2.5l0,-92.2523c0,-1.3808 1.119,-2.5 2.5,-2.5z" clip-rule="evenodd" fill-rule="evenodd"/>
  <path id="svg_5" fill="#ffffff" d="m22.7212,141.884c0,-1.381 1.1193,-2.5 2.5,-2.5l99.3948,0c1.381,0 2.5,1.119 2.5,2.5c0,1.381 -1.119,2.5 -2.5,2.5l-99.3948,0c-1.3807,0 -2.5,-1.119 -2.5,-2.5z" clip-rule="evenodd" fill-rule="evenodd"/>
 </g>
</svg>